<svg width="39" height="50" viewBox="0 0 39 50" xmlns="http://www.w3.org/2000/svg">
    <path d="M.059 42.142v-3.64h4.853V20.06c0-3.397 1-6.44 3.002-9.13 2.002-2.689 4.641-4.377 7.917-5.065V4.531c0-1.011.354-1.87 1.062-2.579C17.6 1.245 18.46.891 19.47.891c1.01 0 1.87.354 2.578 1.061.708.708 1.062 1.568 1.062 2.579v1.334c3.275.688 5.914 2.376 7.916 5.066 2.002 2.689 3.003 5.732 3.003 9.13v18.441h4.853v3.64H.059zm19.412 7.28c-1.335 0-2.477-.476-3.428-1.426-.95-.95-1.425-2.093-1.425-3.428h9.706c0 1.335-.475 2.477-1.426 3.428-.95.95-2.093 1.425-3.427 1.425zM8.55 38.501h21.84V20.06c0-3.033-1.062-5.61-3.186-7.734-2.123-2.123-4.701-3.185-7.734-3.185-3.033 0-5.612 1.062-7.735 3.185s-3.185 4.701-3.185 7.734v18.442z" fill="#0E4061" fill-rule="nonzero"/>
</svg>
